<?xml version="1.0" encoding="UTF-8"?>
<svg version="1.1" xmlns="http://www.w3.org/2000/svg" width="500" height="500">
<path d="M0 0 C165 0 330 0 500 0 C500 165 500 330 500 500 C335 500 170 500 0 500 C0 335 0 170 0 0 Z " fill="#E3E3E3" transform="translate(0,0)"/>
<path d="M0 0 C14.86971231 11.68108073 25.36025873 26.83611357 29.20703125 45.58203125 C30.72883738 66.88731714 29.95022041 87.10365998 16.20703125 104.58203125 C14.05763369 106.95083099 11.89630206 109.27129162 9.61328125 111.51171875 C7.93374906 113.49329593 7.93374906 113.49329593 8.50366211 115.92114258 C9.1801108 118.48018955 10.01284578 120.79559849 11.0546875 123.2265625 C11.41240234 124.06767578 11.77011719 124.90878906 12.13867188 125.77539062 C12.51185547 126.63970703 12.88503906 127.50402344 13.26953125 128.39453125 C13.64658203 129.27818359 14.02363281 130.16183594 14.41210938 131.07226562 C15.33951679 133.24404249 16.27126759 135.41384492 17.20703125 137.58203125 C15.22703125 137.58203125 13.24703125 137.58203125 11.20703125 137.58203125 C10.90152344 136.61523438 10.90152344 136.61523438 10.58984375 135.62890625 C9.34023775 133.27049253 9.34023775 133.27049253 6.38671875 132.97265625 C5.29617188 132.92625 4.205625 132.87984375 3.08203125 132.83203125 C1.98632812 132.7753125 0.890625 132.71859375 -0.23828125 132.66015625 C-1.08132813 132.634375 -1.924375 132.60859375 -2.79296875 132.58203125 C-3.12296875 134.23203125 -3.45296875 135.88203125 -3.79296875 137.58203125 C-8.41296875 137.58203125 -13.03296875 137.58203125 -17.79296875 137.58203125 C-18.28796875 131.64203125 -18.28796875 131.64203125 -18.79296875 125.58203125 C-20.77296875 128.55203125 -22.75296875 131.52203125 -24.79296875 134.58203125 C-28.79296875 133.58203125 -28.79296875 133.58203125 -30.27734375 131.734375 C-31.44921875 129.68359375 -32.62109375 127.6328125 -33.79296875 125.58203125 C-34.12296875 129.54203125 -34.45296875 133.50203125 -34.79296875 137.58203125 C-36.77296875 137.58203125 -38.75296875 137.58203125 -40.79296875 137.58203125 C-40.79296875 136.92203125 -40.79296875 136.26203125 -40.79296875 135.58203125 C-43.76296875 135.58203125 -46.73296875 135.58203125 -49.79296875 135.58203125 C-49.79296875 136.24203125 -49.79296875 136.90203125 -49.79296875 137.58203125 C-52.43296875 137.58203125 -55.07296875 137.58203125 -57.79296875 137.58203125 C-57.79296875 134.61203125 -57.79296875 131.64203125 -57.79296875 128.58203125 C-60.43296875 128.58203125 -63.07296875 128.58203125 -65.79296875 128.58203125 C-65.79296875 131.55203125 -65.79296875 134.52203125 -65.79296875 137.58203125 C-68.43296875 137.58203125 -71.07296875 137.58203125 -73.79296875 137.58203125 C-73.71046875 136.38578125 -73.62796875 135.18953125 -73.54296875 133.95703125 C-73.67262964 131.68947751 -73.67262964 131.68947751 -74.79296875 129.58203125 C-77.72294678 127.62146732 -80.6630689 126.27159155 -83.91015625 124.90625 C-86.52901223 123.70327957 -87.96818089 122.75773985 -89.79296875 120.58203125 C-90.99858059 121.56470984 -90.99858059 121.56470984 -90.890625 123.4296875 C-90.87902344 124.16058594 -90.86742187 124.89148438 -90.85546875 125.64453125 C-90.83484375 126.94390625 -90.81421875 128.24328125 -90.79296875 129.58203125 C-86.55650108 130.59093465 -86.55650108 130.59093465 -82.41796875 129.64453125 C-81.88171875 129.29390625 -81.34546875 128.94328125 -80.79296875 128.58203125 C-79.47296875 129.90203125 -78.15296875 131.22203125 -76.79296875 132.58203125 C-77.60546875 134.51953125 -77.60546875 134.51953125 -78.79296875 136.58203125 C-83.75420664 138.23577721 -89.95062994 138.98082004 -94.77734375 136.60546875 C-97.53429418 134.38080083 -99.79067683 131.98982377 -100.79296875 128.58203125 C-101.15571825 124.59178675 -101.26317541 122.35968073 -99.16796875 118.89453125 C-98.71421875 118.13140625 -98.26046875 117.36828125 -97.79296875 116.58203125 C-99.0162091 113.23384766 -101.16598266 110.87164588 -103.48046875 108.20703125 C-116.91786558 91.623674 -120.21462467 73.17992279 -119.79296875 52.58203125 C-119.7878125 51.76605469 -119.78265625 50.95007813 -119.77734375 50.109375 C-118.83868463 32.71065777 -107.28916574 14.95497458 -94.79296875 3.58203125 C-67.77721491 -19.25505765 -28.55671385 -20.82188446 0 0 Z " fill="#F3D6D9" transform="translate(292.79296875,180.41796875)"/>
<path d="M0 0 C24.09 0 48.18 0 73 0 C73 12.87 73 25.74 73 39 C55.07136223 39.04010881 55.07136223 39.04010881 47.45507812 39.04882812 C42.24909451 39.0548162 37.04312841 39.06191555 31.8371582 39.07543945 C27.64209742 39.08626959 23.44705541 39.0922771 19.25198174 39.09487724 C17.64793032 39.09673126 16.04387997 39.10035144 14.4398365 39.10573006 C12.20083485 39.11294219 9.9619117 39.11399087 7.72290039 39.11352539 C6.44604874 39.115746 5.16919708 39.11796661 3.85365295 39.12025452 C1 39 1 39 0 38 C-0.0886126 35.18859849 -0.11529584 32.40120576 -0.09765625 29.58984375 C-0.09664917 28.84383911 -0.09564209 28.09783447 -0.09460449 27.32922363 C-0.08935689 24.53196687 -0.07539573 21.73473196 -0.0625 18.9375 C-0.041875 12.688125 -0.02125 6.43875 0 0 Z " fill="#F3D6D8" transform="translate(211,212)"/>
<path d="M0 0 C0.73849686 -0.00525696 1.47699371 -0.01051392 2.23786926 -0.01593018 C4.67954642 -0.02913716 7.12057205 -0.0203909 9.56225586 -0.01025391 C11.25711696 -0.01227423 12.95197721 -0.01518533 14.64683533 -0.01895142 C18.19856036 -0.02337552 21.75005907 -0.01694023 25.30175781 -0.00292969 C29.86077636 0.01417541 34.41926562 0.00431338 38.97826481 -0.01364708 C42.4774934 -0.02447154 45.97659584 -0.021045 49.47582817 -0.0132637 C51.15720113 -0.01125866 52.83858544 -0.01373161 54.51994514 -0.02070236 C56.86647151 -0.0282965 59.21213211 -0.01674291 61.55859375 0 C62.60672241 -0.00910904 62.60672241 -0.00910904 63.67602539 -0.0184021 C65.60902405 0.00723267 65.60902405 0.00723267 68.71459961 0.38818359 C70.73596667 3.42023418 70.96868362 4.03811862 71.00512695 7.44482422 C71.01788666 8.25576538 71.03064636 9.06670654 71.04379272 9.90222168 C71.04601837 10.77415161 71.04824402 11.64608154 71.05053711 12.54443359 C71.06052231 13.89245056 71.06052231 13.89245056 71.07070923 15.2677002 C71.08083232 17.16737826 71.08552635 19.06709186 71.08520508 20.96679688 C71.08958336 23.87738304 71.12591974 26.78645903 71.16381836 29.69677734 C71.1696855 31.54182423 71.17365558 33.38687833 71.17553711 35.23193359 C71.18990814 36.10386353 71.20427917 36.97579346 71.21908569 37.87414551 C71.17431218 43.77486899 71.17431218 43.77486899 69.17504883 46.44213867 C65.73847926 47.76350274 62.51094179 47.75876757 58.88647461 47.68115234 C57.762966 47.67478508 57.762966 47.67478508 56.61676025 47.66828918 C54.23233586 47.65154105 51.84876708 47.61389757 49.46459961 47.57568359 C47.84482018 47.56063169 46.22502745 47.54694416 44.60522461 47.53466797 C40.64135495 47.5016504 36.67812218 47.44989606 32.71459961 47.38818359 C32.71459961 51.34818359 32.71459961 55.30818359 32.71459961 59.38818359 C34.28209961 59.30568359 35.84959961 59.22318359 37.46459961 59.13818359 C44.07232522 59.10381311 49.61450548 61.00350456 55.71459961 63.38818359 C55.38459961 64.37818359 55.05459961 65.36818359 54.71459961 66.38818359 C47.12717823 65.47246032 47.12717823 65.47246032 44.15209961 64.86474609 C39.21195694 64.17986268 34.32104726 64.20386054 29.33959961 64.20068359 C27.83526367 64.18231445 27.83526367 64.18231445 26.30053711 64.16357422 C20.37788057 64.15194597 15.40672864 64.79161082 9.71459961 66.38818359 C8.39459961 66.38818359 7.07459961 66.38818359 5.71459961 66.38818359 C6.04459961 65.06818359 6.37459961 63.74818359 6.71459961 62.38818359 C21.31141054 58.94399225 21.31141054 58.94399225 28.71459961 59.38818359 C28.71459961 55.42818359 28.71459961 51.46818359 28.71459961 47.38818359 C27.67529297 47.40913086 26.63598633 47.43007812 25.56518555 47.45166016 C21.70383519 47.52414033 17.84254478 47.5700119 13.98071289 47.60791016 C12.31036259 47.62800752 10.64008248 47.65529043 8.9699707 47.68994141 C6.56696241 47.73854479 4.16488527 47.76117015 1.76147461 47.77880859 C1.01653748 47.79945374 0.27160034 47.82009888 -0.49591064 47.84136963 C-3.73954506 47.84276875 -5.94410453 47.58972512 -8.75732422 45.9284668 C-11.0439506 42.12716507 -10.8394524 38.7120032 -10.78149414 34.35302734 C-10.78294937 33.47796036 -10.7844046 32.60289337 -10.78590393 31.7013092 C-10.78424637 29.85463119 -10.77270101 28.00793916 -10.75195312 26.16137695 C-10.722966 23.33208722 -10.73135297 20.5046677 -10.74438477 17.67529297 C-10.73814816 15.88036197 -10.72975783 14.0854369 -10.71899414 12.29052734 C-10.72192978 11.44360825 -10.72486542 10.59668915 -10.72789001 9.72410583 C-10.63492459 3.95091268 -10.63492459 3.95091268 -9.21548462 1.66563416 C-6.299726 -0.26419742 -3.3806868 -0.02946611 0 0 Z M-6.28540039 4.38818359 C-6.30602539 10.63755859 -6.32665039 16.88693359 -6.34790039 23.32568359 C-6.35700439 25.30044678 -6.3661084 27.27520996 -6.37548828 29.30981445 C-6.37840744 30.86588472 -6.380956 32.42195575 -6.38305664 33.97802734 C-6.38817261 34.79339966 -6.39328857 35.60877197 -6.39855957 36.44885254 C-6.39886979 38.42898883 -6.34778135 40.40903013 -6.28540039 42.38818359 C-5.18428894 43.71486448 -5.18428894 43.71486448 -2.43174744 43.50843811 C-1.15489578 43.5062175 0.12195587 43.50399689 1.4375 43.50170898 C2.13990311 43.50185501 2.84230621 43.50200104 3.56599426 43.50215149 C5.89811239 43.50145232 8.2301516 43.49365976 10.56225586 43.48583984 C12.17508399 43.48397568 13.78791268 43.48255177 15.40074158 43.48155212 C19.65375318 43.47772682 23.90673085 43.46789644 28.159729 43.45684814 C33.25831653 43.44483972 38.35691539 43.44023184 43.455513 43.43439484 C51.2085655 43.42468469 58.96154348 43.40552824 66.71459961 43.38818359 C66.71459961 30.51818359 66.71459961 17.64818359 66.71459961 4.38818359 C42.62459961 4.38818359 18.53459961 4.38818359 -6.28540039 4.38818359 Z " fill="#E95345" transform="translate(217.285400390625,207.61181640625)"/>
<path d="M0 0 C2.64 0 5.28 0 8 0 C8 2.64 8 5.28 8 8 C10.64 8 13.28 8 16 8 C16 5.36 16 2.72 16 0 C18.64 0 21.28 0 24 0 C24 7.92 24 15.84 24 24 C21.36 24 18.72 24 16 24 C16 21.03 16 18.06 16 15 C13.36 15 10.72 15 8 15 C8 17.97 8 20.94 8 24 C5.36 24 2.72 24 0 24 C0 16.08 0 8.16 0 0 Z " fill="#4F168B" transform="translate(219,294)"/>
<path d="M0 0 C3.5578125 -0.0928125 3.5578125 -0.0928125 7.1875 -0.1875 C8.29387817 -0.22846802 8.29387817 -0.22846802 9.42260742 -0.27026367 C13.84236338 -0.32577175 16.46742902 0.35888761 20 3 C21 4 21 4 21.25 7.8125 C21.2364722 11.61381309 20.28344604 12.99000295 18 16 C18.85071899 19.17086167 20.17094266 21.256414 22 24 C18.75 24.375 18.75 24.375 15 24 C12.875 21.0625 12.875 21.0625 11 18 C8.37233611 17.03780298 8.37233611 17.03780298 6 17 C6 19.31 6 21.62 6 24 C4.02 24 2.04 24 0 24 C0 16.08 0 8.16 0 0 Z " fill="#AA2274" transform="translate(312,294)"/>
<path d="M0 0 C6.6 0 13.2 0 20 0 C20 1.98 20 3.96 20 6 C16.04 6 12.08 6 8 6 C8 6.99 8 7.98 8 9 C11.3 9 14.6 9 18 9 C18 10.98 18 12.96 18 15 C14.7 15 11.4 15 8 15 C8 15.99 8 16.98 8 18 C11.96 18 15.92 18 20 18 C20 19.98 20 21.96 20 24 C13.4 24 6.8 24 0 24 C0 16.08 0 8.16 0 0 Z " fill="#4F178C" transform="translate(170,294)"/>
<path d="M0 0 C1.05904289 0.00636726 1.05904289 0.00636726 2.13948059 0.01286316 C4.39155428 0.02963841 6.64272867 0.06728632 8.89453125 0.10546875 C10.4225131 0.12051718 11.95050901 0.13420531 13.47851562 0.14648438 C17.22169997 0.17953786 20.96421321 0.23131043 24.70703125 0.29296875 C24.37703125 1.28296875 24.04703125 2.27296875 23.70703125 3.29296875 C14.13703125 3.62296875 4.56703125 3.95296875 -5.29296875 4.29296875 C-5.29296875 16.83296875 -5.29296875 29.37296875 -5.29296875 42.29296875 C4.27703125 42.62296875 13.84703125 42.95296875 23.70703125 43.29296875 C23.70703125 44.28296875 23.70703125 45.27296875 23.70703125 46.29296875 C25.35703125 46.29296875 27.00703125 46.29296875 28.70703125 46.29296875 C28.70703125 46.62296875 28.70703125 46.95296875 28.70703125 47.29296875 C23.79579536 47.3919549 18.88514187 47.46449122 13.97314453 47.51269531 C12.30279423 47.53279268 10.63251412 47.56007558 8.96240234 47.59472656 C6.55939405 47.64332994 4.15731691 47.66595531 1.75390625 47.68359375 C1.00896912 47.70423889 0.26403198 47.72488403 -0.503479 47.74615479 C-3.74711342 47.74755391 -5.95167289 47.49451027 -8.76489258 45.83325195 C-11.05151896 42.03195023 -10.84702076 38.61678835 -10.7890625 34.2578125 C-10.79051773 33.38274551 -10.79197296 32.50767853 -10.79347229 31.60609436 C-10.79181473 29.75941634 -10.78026937 27.91272431 -10.75952148 26.06616211 C-10.73053436 23.23687237 -10.73892133 20.40945286 -10.75195312 17.58007812 C-10.74571652 15.78514713 -10.73732619 13.99022206 -10.7265625 12.1953125 C-10.72949814 11.3483934 -10.73243378 10.5014743 -10.73545837 9.62889099 C-10.64075009 3.74746542 -10.64075009 3.74746542 -8.97259521 1.56744385 C-6.26149547 -0.48969753 -3.26104045 -0.07376943 0 0 Z " fill="#551D8D" transform="translate(217.29296875,207.70703125)"/>
<path d="M0 0 C1.65 0 3.3 0 5 0 C6.71991514 2.18516269 7.99444303 4.0939833 9.3125 6.5 C9.67150391 7.12003906 10.03050781 7.74007813 10.40039062 8.37890625 C11.28358676 9.90977955 12.14403303 11.45373708 13 13 C16.44320416 9.93371464 18.19034611 6.1200767 20.3046875 2.08203125 C20.86414063 1.39496094 21.42359375 0.70789063 22 0 C23.65 0 25.3 0 27 0 C27 7.92 27 15.84 27 24 C25.35 24 23.7 24 22 24 C21.67 20.04 21.34 16.08 21 12 C18.03 16.455 18.03 16.455 15 21 C11 20 11 20 9.515625 18.15234375 C8.34375 16.1015625 7.171875 14.05078125 6 12 C5.67 15.96 5.34 19.92 5 24 C3.35 24 1.7 24 0 24 C0 16.08 0 8.16 0 0 Z " fill="#A91C71" transform="translate(253,294)"/>
<path d="M0 0 C0.845625 0.495 1.69125 0.99 2.5625 1.5 C2.5625 2.82 2.5625 4.14 2.5625 5.5 C1.9025 6.16 1.2425 6.82 0.5625 7.5 C-1.78515625 7.44140625 -1.78515625 7.44140625 -4.5 7.0625 C-6.14130397 6.83879286 -7.78717189 6.64262095 -9.4375 6.5 C-10.64311184 7.48267859 -10.64311184 7.48267859 -10.53515625 9.34765625 C-10.52355469 10.07855469 -10.51195312 10.80945313 -10.5 11.5625 C-10.479375 12.861875 -10.45875 14.16125 -10.4375 15.5 C-6.20103233 16.5089034 -6.20103233 16.5089034 -2.0625 15.5625 C-1.52625 15.211875 -0.99 14.86125 -0.4375 14.5 C0.8825 15.82 2.2025 17.14 3.5625 18.5 C2.75 20.4375 2.75 20.4375 1.5625 22.5 C-3.39873789 24.15374596 -9.59516119 24.89878879 -14.421875 22.5234375 C-18.61362461 19.14098608 -20.23091927 16.35922654 -20.8125 11.125 C-20.35980438 6.74894231 -19.30169662 4.81643819 -16.4375 1.5 C-10.91132624 -2.18411584 -6.09675 -2.6604 0 0 Z " fill="#531C8E" transform="translate(212.4375,294.5)"/>
<path d="M0 0 C1.98 0 3.96 0 6 0 C7.27601331 2.49747023 8.54586171 4.99777936 9.8125 7.5 C10.16892578 8.19609375 10.52535156 8.8921875 10.89257812 9.609375 C13.26710208 14.31485367 15.22774974 19.03546301 17 24 C15.02 24 13.04 24 11 24 C10.79632813 23.35546875 10.59265625 22.7109375 10.3828125 22.046875 C9.1332065 19.68846128 9.1332065 19.68846128 6.1796875 19.390625 C5.08914063 19.34421875 3.99859375 19.2978125 2.875 19.25 C1.77929688 19.19328125 0.68359375 19.1365625 -0.4453125 19.078125 C-1.28835938 19.05234375 -2.13140625 19.0265625 -3 19 C-3.33 20.65 -3.66 22.3 -4 24 C-5.98 24 -7.96 24 -10 24 C-7.49415892 15.59806226 -3.78974143 7.88058561 0 0 Z " fill="#AA2174" transform="translate(293,294)"/>
<path d="M0 0 C7.26 0 14.52 0 22 0 C22 1.98 22 3.96 22 6 C19.69 6 17.38 6 15 6 C15 11.94 15 17.88 15 24 C12.03 24 9.06 24 6 24 C6 18.06 6 12.12 6 6 C4.02 6 2.04 6 0 6 C0 4.02 0 2.04 0 0 Z " fill="#551F8F" transform="translate(146,294)"/>
<path d="M0 0 C6.93 0 13.86 0 21 0 C21 1.32 21 2.64 21 4 C18.36 4 15.72 4 13 4 C13 10.6 13 17.2 13 24 C11.35 24 9.7 24 8 24 C8 17.4 8 10.8 8 4 C5.36 4 2.72 4 0 4 C0 2.68 0 1.36 0 0 Z " fill="#A8196F" transform="translate(335,294)"/>
<path d="M0 0 C7.26 0 14.52 0 22 0 C22 0.99 22 1.98 22 3 C23.65 3 25.3 3 27 3 C27 3.33 27 3.66 27 4 C15.45 4 3.9 4 -8 4 C-8 3.67 -8 3.34 -8 3 C-5.69 3 -3.38 3 -1 3 C-0.67 2.01 -0.34 1.02 0 0 Z " fill="#8C2F87" transform="translate(219,251)"/>
<path d="M0 0 C0.33 0 0.66 0 1 0 C1 5.28 1 10.56 1 16 C-4.84474908 14.05175031 -9.12031942 11.76142045 -14 8 C-13.67 7.34 -13.34 6.68 -13 6 C-11.7625 6.2475 -10.525 6.495 -9.25 6.75 C-5.66613325 7.21539681 -5.66613325 7.21539681 -2.5625 5.25 C-0.84375016 3.00022547 -0.84375016 3.00022547 0 0 Z " fill="#F0DDCD" transform="translate(218,294)"/>
<path d="M0 0 C6.39075249 -0.36174071 6.39075249 -0.36174071 9 1.1875 C10 3 10 3 9.8125 5.625 C9 8 9 8 7 9 C4.6670134 9.04022391 2.33293334 9.04320247 0 9 C0 6.03 0 3.06 0 0 Z " fill="#DFD4DB" transform="translate(318,298)"/>
<path d="M0 0 C0.33 0 0.66 0 1 0 C1 4.62 1 9.24 1 14 C2.65 13.01 4.3 12.02 6 11 C6.66 11 7.32 11 8 11 C4.98165138 21.01834862 4.98165138 21.01834862 2 24 C1.34 24 0.68 24 0 24 C0 16.08 0 8.16 0 0 Z " fill="#E2D0DA" transform="translate(280,294)"/>
<path d="M0 0 C7.92 0 15.84 0 24 0 C23.67 0.99 23.34 1.98 23 3 C15.08 3 7.16 3 -1 3 C-0.67 2.01 -0.34 1.02 0 0 Z " fill="#72157F" transform="translate(218,208)"/>
<path d="M0 0 C-0.33 0.99 -0.66 1.98 -1 3 C-4.01953125 3.94921875 -4.01953125 3.94921875 -7.8125 4.6875 C-9.05644531 4.93886719 -10.30039063 5.19023437 -11.58203125 5.44921875 C-15 6 -15 6 -19 6 C-18.67 4.68 -18.34 3.36 -18 2 C-15.75256955 1.46818825 -13.50192898 0.94992874 -11.25 0.4375 C-9.99703125 0.14746094 -8.7440625 -0.14257812 -7.453125 -0.44140625 C-4.40526252 -0.93444283 -2.82358172 -1.07666879 0 0 Z " fill="#A92173" transform="translate(242,268)"/>
<path d="M0 0 C2.64 0 5.28 0 8 0 C8 2.97 8 5.94 8 9 C7.67 8.01 7.34 7.02 7 6 C5.35 5.67 3.7 5.34 2 5 C1.34 6.32 0.68 7.64 0 9 C0 6.03 0 3.06 0 0 Z " fill="#E1CACF" transform="translate(227,309)"/>
<path d="M0 0 C3.04312545 3.80390681 4.99886043 6.69754992 7 11 C5.02 11 3.04 11 1 11 C0.67 11.99 0.34 12.98 0 14 C0 9.38 0 4.76 0 0 Z " fill="#EBC5D4" transform="translate(258,304)"/>
<path d="M0 0 C2.6855594 2.6855594 3.06049974 5.37621328 4 9 C1.69 9 -0.62 9 -3 9 C-2.5020163 5.26512223 -2.12508244 3.18762365 0 0 Z " fill="#DBC6D2" transform="translate(296,300)"/>
<path d="M0 0 C3.96 0 7.92 0 12 0 C11.67 0.99 11.34 1.98 11 3 C7.04 3 3.08 3 -1 3 C-0.67 2.01 -0.34 1.02 0 0 Z " fill="#A5186F" transform="translate(230,208)"/>
<path d="M0 0 C3.63 0 7.26 0 11 0 C11 0.99 11 1.98 11 3 C7.37 3 3.74 3 0 3 C0 2.01 0 1.02 0 0 Z " fill="#A5186F" transform="translate(230,251)"/>
<path d="M0 0 C-0.33 0.99 -0.66 1.98 -1 3 C-3.31 3.33 -5.62 3.66 -8 4 C-7.6875 2.0625 -7.6875 2.0625 -7 0 C-3.86650268 -1.04449911 -3.01031744 -0.93423645 0 0 Z " fill="#852080" transform="translate(231,270)"/>
<path d="M0 0 C0.33 0 0.66 0 1 0 C1 2.31 1 4.62 1 7 C-0.65 7.66 -2.3 8.32 -4 9 C-2.94124926 5.59687262 -1.99097846 2.98646769 0 0 Z " fill="#ECBFD6" transform="translate(274,304)"/>
</svg>
