<?xml version="1.0" encoding="UTF-8" standalone="no"?>
<!-- Created with Inkscape (http://www.inkscape.org/) -->

<svg
   width="210mm"
   height="297mm"
   viewBox="0 0 210 297"
   version="1.1"
   id="svg1"
   inkscape:export-filename="techmart.svg"
   inkscape:export-xdpi="75.212227"
   inkscape:export-ydpi="75.212227"
   xmlns:inkscape="http://www.inkscape.org/namespaces/inkscape"
   xmlns:sodipodi="http://sodipodi.sourceforge.net/DTD/sodipodi-0.dtd"
   xmlns:xlink="http://www.w3.org/1999/xlink"
   xmlns="http://www.w3.org/2000/svg"
   xmlns:svg="http://www.w3.org/2000/svg">
  <sodipodi:namedview
     id="namedview1"
     pagecolor="#ffffff"
     bordercolor="#000000"
     borderopacity="0.25"
     inkscape:showpageshadow="2"
     inkscape:pageopacity="0.0"
     inkscape:pagecheckerboard="0"
     inkscape:deskcolor="#d1d1d1"
     inkscape:document-units="mm" />
  <defs
     id="defs1">
    <linearGradient
       inkscape:collect="always"
       xlink:href="#linearGradient29"
       id="linearGradient30"
       x1="216.4623"
       y1="126.01626"
       x2="334.64111"
       y2="126.01626"
       gradientUnits="userSpaceOnUse"
       gradientTransform="matrix(1.1040079,0,0,1.1040079,-184.80972,0.1649682)" />
    <linearGradient
       id="linearGradient29"
       inkscape:collect="always">
      <stop
         style="stop-color:#bc3fc5;stop-opacity:1;"
         offset="0"
         id="stop29" />
      <stop
         style="stop-color:#3f3fc5;stop-opacity:0.76969695;"
         offset="1"
         id="stop30" />
    </linearGradient>
    <marker
       markerWidth="0.63628411"
       markerHeight="0.99999994"
       refX="0"
       refY="0"
       orient="auto-start-reverse"
       id="CapButt"
       viewBox="0 0 0.63628413 1"
       inkscape:stockid="Butt cap"
       style="overflow:visible"
       preserveAspectRatio="xMidYMid"
       inkscape:isstock="true"
       inkscape:collect="always">
      <path
         style="fill:context-stroke;stroke-linecap:butt"
         d="M 0,-1 H 0.585 C 1.107,-1 1.369,-0.369 1,0 1.369,0.369 1.107,1 0.585,1 H 0 L -0.1,0 Z"
         sodipodi:nodetypes="sssssscsss"
         transform="scale(0.5)"
         id="path64" />
    </marker>
    <marker
       markerWidth="0.63628411"
       markerHeight="0.99999994"
       refX="0"
       refY="0"
       orient="auto-start-reverse"
       id="marker32"
       viewBox="0 0 0.63628413 1"
       inkscape:stockid="Butt cap"
       style="overflow:visible"
       preserveAspectRatio="xMidYMid"
       inkscape:isstock="true"
       inkscape:collect="always">
      <path
         style="fill:context-stroke;stroke-linecap:butt"
         d="M 0,-1 H 0.585 C 1.107,-1 1.369,-0.369 1,0 1.369,0.369 1.107,1 0.585,1 H 0 L -0.1,0 Z"
         sodipodi:nodetypes="sssssscsss"
         transform="scale(0.5)"
         id="path32" />
    </marker>
    <marker
       style="overflow:visible"
       id="marker35"
       refX="0"
       refY="0"
       orient="auto"
       inkscape:stockid="Dot"
       markerWidth="1"
       markerHeight="1"
       viewBox="0 0 1 1"
       inkscape:isstock="true"
       inkscape:collect="always"
       preserveAspectRatio="xMidYMid">
      <path
         transform="scale(0.5)"
         style="fill:context-stroke;fill-rule:evenodd;stroke:none"
         d="M 5,0 C 5,2.76 2.76,5 0,5 -2.76,5 -5,2.76 -5,0 c 0,-2.76 2.3,-5 5,-5 2.76,0 5,2.24 5,5 z"
         sodipodi:nodetypes="sssss"
         id="path35" />
    </marker>
    <rect
       x="165.50523"
       y="295.0058"
       width="125.62065"
       height="37.846443"
       id="rect35" />
  </defs>
  <g
     inkscape:label="Layer 1"
     inkscape:groupmode="layer"
     id="layer1">
    <ellipse
       style="fill:url(#linearGradient30);fill-opacity:1;fill-rule:evenodd;stroke:#a75bc5;stroke-width:0;stroke-dasharray:none;stroke-opacity:0.979253"
       id="path29"
       cx="119.4015"
       cy="139.28792"
       rx="57.380199"
       ry="54.495159"
       inkscape:export-filename="techmart.svg"
       inkscape:export-xdpi="75.212227"
       inkscape:export-ydpi="75.212227" />
    <path
       d="m 78.909683,109.83745 c 26.595557,0 53.191117,0 80.592567,0 0,14.20855 0,28.41715 0,43.05627 -19.79336,0.0442 -19.79336,0.0442 -28.20179,0.0539 -5.74743,0.008 -11.49488,0.0126 -17.2423,0.0292 -4.63138,0.0126 -9.26274,0.0167 -13.89414,0.0208 -1.770883,0.002 -3.541767,0.004 -5.312652,0.0126 -2.471874,0.008 -4.943659,0.008 -7.415541,0.008 -1.409656,0.002 -2.819307,0.004 -4.271682,0.008 -3.150456,-0.13311 -3.150456,-0.13311 -4.254462,-1.23727 -0.09781,-3.10381 -0.127307,-6.18108 -0.107862,-9.28489 0.0011,-0.82359 0.0022,-1.64719 0.0033,-2.49573 0.0054,-3.08817 0.02128,-6.17637 0.03547,-9.26453 0.02253,-6.89936 0.04548,-13.79872 0.06901,-20.90713 z"
       fill="#F3D6D8"
       id="path3"
       style="fill:#fdf7f7;fill-opacity:1;stroke-width:1.104;marker-start:url(#CapButt);marker-end:url(#marker32)" />
    <path
       d="m 85.848814,104.99286 c 0.81531,-0.004 1.630609,-0.0125 2.470626,-0.0167 2.695621,-0.0125 5.390539,-0.004 8.086173,0.008 1.871149,-0.002 3.742287,-0.004 5.613417,-0.008 3.92114,-0.004 7.84202,0.002 11.76313,0.0167 5.03317,0.0209 10.06578,0.008 15.09897,-0.0125 3.86318,-0.0125 7.7262,-0.008 11.58939,4.2e-4 1.85623,0.002 3.71251,-5e-4 5.56875,-0.008 2.59057,-0.008 5.18018,0.004 7.77072,0.0209 1.15715,-0.008 1.15715,-0.008 2.33767,-0.0209 2.13405,0.0292 2.13405,0.0292 5.56262,0.44885 2.23161,3.34741 2.48851,4.02955 2.52878,7.79059 0.0126,0.89527 0.0292,1.7906 0.0425,2.71299 0.002,0.96263 0.004,1.92521 0.008,2.91701 0.0126,1.48825 0.0126,1.48825 0.0208,3.0065 0.0126,2.09729 0.0167,4.19458 0.0167,6.29186 0.004,3.21331 0.0451,6.42498 0.0868,9.63799 0.008,2.03695 0.0126,4.0739 0.0126,6.11085 0.0167,0.96259 0.0334,1.92521 0.048,2.91701 -0.0492,6.51447 -0.0492,6.51447 -2.25663,9.45914 -3.79401,1.45879 -7.35722,1.45357 -11.35865,1.36787 -1.2404,-0.008 -1.2404,-0.008 -2.50579,-0.0126 -2.63243,-0.0167 -5.2639,-0.0601 -7.89603,-0.10223 -1.78826,-0.0167 -3.57653,-0.0334 -5.36479,-0.0455 -4.37617,-0.0376 -8.75159,-0.0935 -13.12734,-0.16189 0,4.37187 0,8.74374 0,13.2481 1.73052,-0.091 3.46107,-0.18193 5.24404,-0.27582 7.29496,-0.0376 13.41358,2.05932 20.14812,4.69204 -0.36428,1.09294 -0.72863,2.18592 -1.104,3.31202 -8.37659,-1.01098 -8.37659,-1.01098 -11.66107,-1.6819 -5.45397,-0.75612 -10.85355,-0.72963 -16.35312,-0.73313 -1.66081,-0.0208 -1.66081,-0.0208 -3.35516,-0.0417 -6.53866,-0.0125 -12.02685,0.69337 -18.311011,2.456 -1.457291,0 -2.914581,0 -4.41603,0 0.364312,-1.45729 0.728644,-2.91458 1.104006,-4.41601 16.114995,-3.80243 16.114995,-3.80243 24.288165,-3.31202 0,-4.37188 0,-8.74375 0,-13.2481 -1.14739,0.025 -2.2948,0.0463 -3.47697,0.0701 -4.26296,0.0801 -8.52586,0.1306 -12.78935,0.17233 -1.844081,0.0209 -3.688083,0.0522 -5.531896,0.0906 -2.652944,0.0539 -5.304859,0.0784 -7.958241,0.0981 -0.822408,0.0208 -1.64483,0.0455 -2.492165,0.0693 -3.581004,7.7e-4 -6.014856,-0.2779 -9.120673,-2.11186 -2.524448,-4.19666 -2.29868,-7.96704 -2.234701,-12.77938 -0.0011,-0.96609 -0.0033,-1.93218 -0.0046,-2.92751 0.0022,-2.03875 0.01461,-4.07754 0.03755,-6.11616 0.03213,-3.12354 0.02254,-6.24505 0.0088,-9.36868 0.0067,-1.98162 0.01627,-3.96325 0.02796,-5.94483 -0.0033,-0.935 -0.0067,-1.87 -0.01001,-2.83334 0.102688,-6.37369 0.102688,-6.37369 1.669702,-8.89662 3.219025,-2.13055 6.441667,-1.87143 10.173974,-1.83888 z m -6.939131,4.84459 c -0.02253,6.89936 -0.04548,13.79871 -0.06902,20.90713 -0.01001,2.18015 -0.02002,4.36031 -0.03046,6.60652 -0.0033,1.71791 -0.0054,3.43586 -0.0088,5.15378 -0.0054,0.90016 -0.01127,1.80032 -0.01711,2.72777 -3.42e-4,2.18613 0.05608,4.37208 0.124929,6.55708 1.215632,1.46467 1.215632,1.46467 4.254457,1.23677 1.409652,-0.002 2.819308,-0.004 4.271683,-0.008 0.775458,1.6e-4 1.550912,3.3e-4 2.34987,4.9e-4 2.574678,-7.7e-4 5.149269,-0.008 7.723927,-0.0167 1.780578,-0.002 3.561151,-0.003 5.341731,-0.004 4.69536,-0.004 9.39068,-0.0167 14.08602,-0.0292 5.62889,-0.0125 11.25777,-0.0167 16.88668,-0.025 8.55944,-0.0125 17.1188,-0.0334 25.67823,-0.0509 0,-14.20855 0,-28.41715 0,-43.05627 -26.59557,0 -53.19112,0 -80.592598,0 z"
       fill="#e95345"
       id="path4"
       style="stroke-width:1.104" />
    <path
       d="m 85.857172,105.09797 c 1.169187,0.008 1.169187,0.008 2.362004,0.0125 2.486302,0.0167 4.971624,0.0601 7.457625,0.10223 1.686902,0.0167 3.373829,0.0334 5.060749,0.0451 4.13252,0.0376 8.26428,0.0935 12.39638,0.1619 -0.36431,1.09293 -0.72864,2.18591 -1.10401,3.31202 -10.56536,0.36427 -21.130711,0.72862 -32.016231,1.10399 0,13.84428 0,27.68852 0,41.95232 10.565358,0.36427 21.130711,0.72863 32.016231,1.104 0,1.09297 0,2.18595 0,3.31202 1.82162,0 3.64323,0 5.52005,0 0,0.36427 0,0.72866 0,1.10399 -5.42206,0.10933 -10.84345,0.18944 -16.26634,0.24243 -1.844082,0.0208 -3.688083,0.0522 -5.531896,0.0906 -2.652945,0.0539 -5.304847,0.0784 -7.958242,0.0981 -0.822408,0.0208 -1.644829,0.0455 -2.492165,0.0693 -3.581007,7.7e-4 -6.014847,-0.2779 -9.120664,-2.11186 -2.524457,-4.19666 -2.298688,-7.96705 -2.234697,-12.77938 -0.0011,-0.96609 -0.0033,-1.93213 -0.0046,-2.92751 0.0022,-2.03875 0.01461,-4.07749 0.03755,-6.11612 0.03213,-3.12358 0.02254,-6.24504 0.0088,-9.36872 0.0067,-1.98161 0.01627,-3.96324 0.02796,-5.94482 -0.0033,-0.93501 -0.0067,-1.87 -0.01001,-2.83334 0.104567,-6.49316 0.104567,-6.49316 1.946214,-8.89993 2.993077,-2.27108 6.305606,-1.81188 9.90582,-1.73043 z"
       fill="#551D8D"
       id="path8"
       style="fill:#e95345;fill-opacity:1;stroke-width:1.104" />
    <path
       d="m 87.741747,152.89372 c 8.015098,0 16.030203,0 24.288173,0 0,1.09298 0,2.18596 0,3.31203 1.82162,0 3.64323,0 5.52005,0 0,0.36426 0,0.72866 0,1.10403 -12.7513,0 -25.502591,0 -38.640287,0 0,-0.36427 0,-0.72866 0,-1.10403 2.550256,0 5.100517,0 7.728054,0 0.364312,-1.09294 0.728645,-2.18592 1.10401,-3.31203 z"
       fill="#8C2F87"
       id="path14"
       style="fill:#e95345;fill-opacity:1;stroke-width:1.104" />
    <path
       d="m 86.637737,105.42139 c 8.743742,0 17.487493,0 26.496193,0 -0.36431,1.09298 -0.72864,2.18596 -1.10401,3.31202 -8.74374,0 -17.487485,0 -26.496189,0 0.364311,-1.09297 0.728644,-2.18591 1.104006,-3.31202 z"
       fill="#72157F"
       id="path18"
       style="fill:#e95345;fill-opacity:1;stroke-width:1.104" />
    <path
       d="m 113.13393,171.66187 c -0.36431,1.09298 -0.72864,2.18596 -1.10401,3.31202 -3.33358,1.04796 -3.33358,1.04796 -7.52105,1.86304 -1.37333,0.27748 -2.74665,0.555 -4.1616,0.84091 -3.773462,0.60808 -3.773462,0.60808 -8.189492,0.60808 0.364312,-1.4573 0.728645,-2.91459 1.104007,-4.41602 2.481182,-0.58713 4.965907,-1.15928 7.452055,-1.72501 1.38329,-0.32004 2.76658,-0.64041 4.19178,-0.97034 3.36487,-0.54432 5.11106,-0.70134 8.22831,0.48732 z"
       fill="#A92173"
       id="path19"
       style="fill:#e95345;fill-opacity:1;stroke-width:1.104" />
    <path
       d="m 99.885832,105.42139 c 4.371878,0 8.743748,0 13.248098,0 -0.36431,1.09298 -0.72864,2.18596 -1.10401,3.31202 -4.37187,0 -8.74374,0 -13.248095,0 0.364313,-1.09297 0.728645,-2.18591 1.104007,-3.31202 z"
       fill="#A5186F"
       id="path23"
       style="fill:#e95345;fill-opacity:1;stroke-width:1.104" />
    <path
       d="m 99.885832,152.89372 c 4.007558,0 8.015098,0 12.144088,0 0,1.09298 0,2.18596 0,3.31203 -4.00755,0 -8.01509,0 -12.144088,0 0,-1.09294 0,-2.18592 0,-3.31203 z"
       fill="#A5186F"
       id="path24"
       style="fill:#e95345;fill-opacity:1;stroke-width:1.104" />
    <path
       d="m 100.98984,173.8699 c -0.36431,1.09298 -0.72864,2.18591 -1.104008,3.31202 -2.550257,0.36427 -5.100517,0.72863 -7.728054,1.104 0.344993,-2.13902 0.344993,-2.13902 1.104007,-4.41602 3.459408,-1.15315 4.404638,-1.03143 7.728055,0 z"
       fill="#852080"
       id="path25"
       style="fill:#e95345;fill-opacity:1;stroke-width:1.104" />
    <path
       style="fill:#fdf7f7;fill-opacity:1;fill-rule:evenodd;stroke:#e95345;stroke-width:2.53922;stroke-dasharray:none;stroke-opacity:1;marker-start:url(#marker35);marker-end:url(#CapButt)"
       d="m 97.137151,134.39546 c 18.549689,22.64189 37.256679,1.01795 48.597929,-14.25746"
       id="path33"
       sodipodi:nodetypes="cc" />
    <text
       xml:space="preserve"
       id="text35"
       style="font-style:normal;font-variant:normal;font-weight:normal;font-stretch:normal;font-size:21.3333px;font-family:'Microsoft YaHei';-inkscape-font-specification:'Microsoft YaHei';white-space:pre;shape-inside:url(#rect35);shape-padding:0.821262;fill:#ff00ff;fill-opacity:1;fill-rule:evenodd;stroke:none;stroke-width:2.3;stroke-dasharray:none;stroke-opacity:1"
       x="58.739491"
       y="0"
       transform="matrix(1.1040079,0,0,1.1040079,-61.500821,-134.73327)"
       inkscape:export-filename=".\path29.svg"
       inkscape:export-xdpi="88.570297"
       inkscape:export-ydpi="88.570297"><tspan
         x="166.72699"
         y="314.7519"
         id="tspan6"><tspan
           style="font-weight:bold;-inkscape-font-specification:'Microsoft YaHei Bold';text-align:center;text-anchor:middle;fill:#dc00dc"
           id="tspan4">TECH</tspan><tspan
           style="font-weight:bold;-inkscape-font-specification:'Microsoft YaHei Bold';text-align:center;text-anchor:middle;fill:#4034ff"
           id="tspan5">MART</tspan></tspan></text>
  </g>
</svg>
